<?xml version="1.0" encoding="UTF-8" standalone="no"?>
<svg
   xmlns:dc="http://purl.org/dc/elements/1.1/"
   xmlns:cc="http://creativecommons.org/ns#"
   xmlns:rdf="http://www.w3.org/1999/02/22-rdf-syntax-ns#"
   xmlns:svg="http://www.w3.org/2000/svg"
   xmlns="http://www.w3.org/2000/svg"
   xmlns:sodipodi="http://sodipodi.sourceforge.net/DTD/sodipodi-0.dtd"
   xmlns:inkscape="http://www.inkscape.org/namespaces/inkscape"
   enable-background="new 0 0 2296.0635 416.6924"
   version="1.1"
   viewBox="0 0 287.95 287.95"
   xml:space="preserve"
   id="svg10"
   sodipodi:docname="burningpro-icon.svg"
   inkscape:version="0.92.2 2405546, 2018-03-11"
   inkscape:export-filename="/home/lo48576/Downloads/burningpro-icon.svg.png"
   inkscape:export-xdpi="426.74072"
   inkscape:export-ydpi="426.74072"><title
     id="title819">BurningPro icon</title><defs
     id="defs14" /><sodipodi:namedview
     pagecolor="#ffffff"
     bordercolor="#666666"
     borderopacity="1"
     objecttolerance="10"
     gridtolerance="10"
     guidetolerance="10"
     inkscape:pageopacity="0"
     inkscape:pageshadow="2"
     inkscape:window-width="1276"
     inkscape:window-height="1392"
     id="namedview12"
     showgrid="false"
     inkscape:zoom="3.2783468"
     inkscape:cx="150.78257"
     inkscape:cy="127.61618"
     inkscape:window-x="1280"
     inkscape:window-y="46"
     inkscape:window-maximized="0"
     inkscape:current-layer="layer1" /><metadata
     id="metadata4"><rdf:RDF><cc:Work
         rdf:about=""><dc:format>image/svg+xml</dc:format><dc:type
           rdf:resource="http://purl.org/dc/dcmitype/StillImage" /><dc:title>BurningPro icon</dc:title><dc:date>2018-11-02</dc:date><dc:creator><cc:Agent><dc:title>edited by BurningPro developer team</dc:title></cc:Agent></dc:creator><dc:rights><cc:Agent><dc:title>pd</dc:title></cc:Agent></dc:rights><dc:publisher><cc:Agent><dc:title>wpclipart</dc:title></cc:Agent></dc:publisher><cc:license
           rdf:resource="http://creativecommons.org/publicdomain/zero/1.0/" /><dc:source>https://wpclipart.com/signs_symbol/safety_signs/fire/fire_icon_3.png.html</dc:source><dc:description>Originally &lt;https://wpclipart.com/signs_symbol/safety_signs/fire/fire_icon_3.png.html&gt; (edited by Paul Sherman), edited by BurningPro developer team.</dc:description></cc:Work><cc:License
         rdf:about="http://creativecommons.org/publicdomain/zero/1.0/"><cc:permits
           rdf:resource="http://creativecommons.org/ns#Reproduction" /><cc:permits
           rdf:resource="http://creativecommons.org/ns#Distribution" /><cc:permits
           rdf:resource="http://creativecommons.org/ns#DerivativeWorks" /></cc:License></rdf:RDF></metadata><rect
     width="287.95"
     height="287.95"
     fill="#ff6d00"
     id="rect6"
     style="fill:#000000;fill-opacity:0" /><g
     inkscape:groupmode="layer"
     id="layer1"
     inkscape:label="front-fire"
     style="display:inline"><path
       d="m 125.93,13.57 c -18.812,82.946 -79.992,120.67 -79.992,182.41 0,40.519 28.139,66.447 67.276,79.007 -11.543,-8.2999 -27.076,-26.048 -27.076,-42.79 0,-31.654 17.4,-41.141 26.445,-75.53 21.729,17.487 22.215,41.163 22.215,41.163 0,0 30.355,-41.442 22.215,-92.614 88.861,72.033 52.633,148.67 17.335,171.08 39.376,-5.3261 71.526,-38.951 71.526,-80.957 0,-61.742 -33.647,-107.53 -119.95,-181.77 z"
       id="path8"
       style="fill:#ff2400;fill-opacity:1"
       inkscape:connector-curvature="0" /><path
       inkscape:connector-curvature="0"
       style="fill:#ff2400;fill-opacity:1;stroke:#000000;stroke-opacity:1;stroke-width:5;stroke-miterlimit:4;stroke-dasharray:none;stroke-linejoin:round"
       id="path856"
       d="m 125.93,13.57 c -18.812,82.946 -79.992,120.67 -79.992,182.41 0,40.519 28.139,66.447 67.276,79.007 -11.543,-8.2999 -27.076,-26.048 -27.076,-42.79 0,-31.654 17.4,-41.141 26.445,-75.53 21.729,17.487 22.215,41.163 22.215,41.163 0,0 30.355,-41.442 22.215,-92.614 88.861,72.033 52.633,148.67 17.335,171.08 39.376,-5.3261 71.526,-38.951 71.526,-80.957 0,-61.742 -33.647,-107.53 -119.95,-181.77 z" /></g></svg>